<svg 
 xmlns="http://www.w3.org/2000/svg"
 xmlns:xlink="http://www.w3.org/1999/xlink"
 width="2.472in" height="2.028in">
<defs>
<linearGradient id="PSgrad_0" x1="0%" x2="0%" y1="100%" y2="0%">
  <stop offset="0%" stop-color="rgb(227,177,145)" stop-opacity="1" />
  <stop offset="100%" stop-color="rgb(243,208,181)" stop-opacity="1" />
</linearGradient>
<linearGradient id="PSgrad_1" x1="0%" x2="0%" y1="100%" y2="0%">
  <stop offset="0%" stop-color="rgb(187,25,0)" stop-opacity="1" />
  <stop offset="100%" stop-color="rgb(204,29,0)" stop-opacity="1" />
</linearGradient>

</defs>
<path fill-rule="evenodd"  fill="url(#PSgrad_0)"
 d="M61.874,134.078 C28.279,112.223 18.771,67.287 40.637,33.709 C62.503,0.132 107.463,-9.371 141.058,12.483 C174.653,34.338 184.161,79.274 162.295,112.852 C140.429,146.429 95.469,155.932 61.874,134.078 Z"/>
<path fill-rule="evenodd"  fill="url(#PSgrad_1)"
 d="M58.477,113.587 C63.907,113.926 107.805,88.125 107.805,88.125 L114.949,113.658 L126.039,108.402 L135.109,70.986 C135.109,70.986 176.582,41.863 177.325,39.634 C175.726,24.453 155.208,32.088 155.208,32.088 C155.208,32.088 141.795,29.691 138.597,30.490 C134.781,32.224 97.860,55.793 97.860,55.793 L79.650,57.113 L64.991,62.834 L80.227,67.415 L48.084,85.622 L12.909,80.828 L0.119,90.416 C0.119,90.416 45.686,112.788 58.477,113.587 Z"/>
</svg>