<svg 
 xmlns="http://www.w3.org/2000/svg"
 xmlns:xlink="http://www.w3.org/1999/xlink"
 width="2.444in" height="1.944in">
<defs>
<linearGradient id="PSgrad_0" x1="0%" x2="0%" y1="100%" y2="0%">
  <stop offset="0%" stop-color="rgb(147,227,227)" stop-opacity="1" />
  <stop offset="100%" stop-color="rgb(179,243,243)" stop-opacity="1" />
</linearGradient>
<linearGradient id="PSgrad_1" x1="0%" x2="0%" y1="100%" y2="0%">
  <stop offset="0%" stop-color="rgb(0,185,188)" stop-opacity="1" />
  <stop offset="100%" stop-color="rgb(0,201,203)" stop-opacity="1" />
</linearGradient>
<linearGradient id="PSgrad_2" x1="0%" x2="0%" y1="100%" y2="0%">
  <stop offset="0%" stop-color="rgb(0,176,179)" stop-opacity="1" />
  <stop offset="100%" stop-color="rgb(0,206,209)" stop-opacity="1" />
</linearGradient>
<linearGradient id="PSgrad_3" x1="0%" x2="0%" y1="100%" y2="0%">
  <stop offset="0%" stop-color="rgb(0,186,189)" stop-opacity="1" />
  <stop offset="100%" stop-color="rgb(0,201,203)" stop-opacity="1" />
</linearGradient>

</defs>
<path fill-rule="evenodd"  fill="url(#PSgrad_0)"
 d="M50.715,128.245 C19.148,107.710 10.214,65.486 30.760,33.935 C51.306,2.385 93.552,-6.545 125.119,13.991 C156.685,34.526 165.620,76.750 145.074,108.300 C124.528,139.851 82.282,148.780 50.715,128.245 Z"/>
<path fill-rule="evenodd"  fill="url(#PSgrad_1)"
 d="M62.071,39.342 C62.071,39.342 0.235,71.336 0.235,75.984 C0.235,80.633 62.804,105.298 62.804,105.298 L62.804,89.664 L27.609,73.053 L62.071,55.953 L62.071,39.342 Z"/>
<path fill-rule="evenodd"  fill="url(#PSgrad_2)"
 d="M106.715,2.584 L56.299,136.596 L75.158,131.829 L121.330,0.383 L106.715,2.584 Z"/>
<path fill-rule="evenodd"  fill="url(#PSgrad_3)"
 d="M113.614,39.342 C113.614,39.342 175.450,71.336 175.450,75.984 C175.450,80.633 112.881,105.298 112.881,105.298 L112.881,89.664 L148.076,73.053 L113.614,55.953 L113.614,39.342 Z"/>
</svg>